<?xml version="1.0" encoding="utf-8"?>
<!-- Generator: Adobe Illustrator 19.1.0, SVG Export Plug-In . SVG Version: 6.00 Build 0)  -->
<svg version="1.1" id="Layer_1" xmlns="http://www.w3.org/2000/svg" xmlns:xlink="http://www.w3.org/1999/xlink" x="0px" y="0px"
	 viewBox="95 -115.3 550 376.7" style="enable-background:new 95 -115.3 550 376.7;" xml:space="preserve">
<style type="text/css">
	.st0{fill:#FFFFFF;}
</style>
<g>
	<path class="st0" d="M95,82c0.9-3.7,1.7-7.4,2.7-11.1c5.3-19.8,17.1-35.2,32.7-47.8c19.9-16,42.7-26.1,66.7-34
		c28.7-9.4,57.7-18.2,85.9-29.1c15.8-6.1,31.3-13.1,46-21.5c3.7-2.1,6.6-4.7,8.5-8.7c2.8-5.8,5.7-11.8,10.8-16c3.6-3,8.4-7,12.3-3.9
		c3.7,3,0.7,8.4-1.4,12.4c-3.6,6.6-9.3,11.3-15.1,15.8c-1.8,1.4-3,2.9-3.7,5.1c-5.6,19-11.2,38-16.8,57c-1,3.5,0,4.3,3.3,3.4
		c9.2-2.8,16.5-6.6,20.5-17c9.5-24.5,18.4-49.4,32.8-71.6c4.5-7,9.8-13.5,15.8-19.3c0.6-0.6,1.8-1.4,2-1.2c1,1-0.2,1.8-0.6,2.5
		c-4.9,8.1-10,16.2-14.9,24.3c-8.7,14.2-13.3,30.1-18.9,45.6c-2.6,7.2-5,14.5-8,21.5c-1.7,4.2-0.3,4.4,3.3,3.9
		c9.6-1.3,19.2-1.8,28.9-1.4c3,0.1,4.5-1,5.8-3.6c5.5-11.4,11.1-22.7,16.6-34.1c6.7-14,13.7-27.8,23.4-40
		c12.5-15.9,28.7-25.4,48.8-28.3c14.1-2,27.6,8.6,26.5,24c-2.3,32.6-18,56.9-43.8,75.4C456.9-9.8,448.5-4,440,1.5
		c-3.2,2.1-3.1,3.9-0.3,6c2.5,1.9,5.2,3.6,7.7,5.4c1.8,1.2,3.5,2.6,4.4,4.6c0.6,1.4,1.1,3,0,4.3c-1.2,1.5-2.8,0.6-4.1,0
		c-3.8-1.8-6.7-4.8-10-7.4c-6.9-5.6-7.3-5.4-14.7-1c-12.9,7.6-25.9,15-38.9,22.4c-2.8,1.6-4.6,3.6-5.7,6.5
		c-2.8,7.7-5.8,15.3-8.6,22.9c-0.4,1.1-1.4,2.6-0.1,3.6c0.4,0.3,2-0.8,2.9-1.5c5.2-4,10.7-7.3,17.5-7.9c4-0.3,6.1,0.5,4.7,5.2
		c-2.1,7-4.1,14.1-6.1,21.1c-1.5,5.2-2.6,10.4-1.7,15.8c0.3,1.7,0.2,4.1,2.5,4.4c2.2,0.3,3.8-1.3,4.7-3.1c2.8-5.4,2.1-11.1,0.2-16.5
		c-1.1-3.2-0.7-5.5,1.1-8.3c2.7-4.2,4.8-8.8,7.2-13.1c2.4-4.2,5.1-8.2,9.2-11c2.6-1.7,5.3-1.8,8-0.4c2.7,1.4,3.4,3.9,3.3,6.8
		c-0.1,3.2-0.9,6.3-2,9.2c-2.5,6.9-4.6,13.9-5.1,21.3c-0.1,1.3-0.5,2.6-0.9,3.9c-1,2.9-3.1,5.3-6.2,4.6c-2.8-0.6-2.2-3.8-2.1-6
		c0.1-4.6,1.6-8.8,3.1-13.1c1.6-4.7,3.5-9.4,3.9-14.4c0.1-1,0.5-2.1-0.5-2.8c-1-0.7-2.1,0-2.6,0.7c-4.5,6.8-12.1,12.1-9.6,22.1
		c1.5,5.9,0.9,11.9-0.9,17.8c-1.1,3.4-2.8,6.4-5.7,8.6c-6.8,5.1-15.5,1.3-16.3-7.1c-0.7-7.5,1.5-14.5,3.7-21.5
		c1.5-4.8,3.3-9.4,4.9-14.2c0.4-1.1,1.1-2.4-0.2-3.1c-0.7-0.4-1.9,0.1-2.8,0.4c-7,2.7-9.6,6.8-9.2,14.3c0.6,10.5,1.5,21,0.1,31.4
		c-1.2,9.2-4.4,17.4-11.5,23.7c-3.6,3.1-7.5,5.3-12.3,3.4c-4.8-2-5.2-6.6-5.3-11c-0.2-9.1,1.9-17.9,4.5-26.5
		c5.3-17.5,9.7-35.3,16.8-52.3c0.4-1,1.4-2.3,0.6-3.2c-1.1-1.3-2.5,0-3.6,0.5c-10.2,4.4-20.4,9-30.6,13.4c-2.1,0.9-3,2.4-3.7,4.3
		c-11.2,30.2-25,59.2-39.2,88c-0.6,1.2-1.8,2.5-1,3.7c1,1.5,2.7,0.4,4.1,0.1c2.2-0.4,5.1-1.8,6.3,0.9c1.2,2.7-1.4,5.1-3.5,5.8
		c-9.9,3.2-17.8,8.3-22.1,18.3c-1.1,2.6-4.9,3.3-7.6,1.6c-2.8-1.7-1.9-4.7-1.1-7.2c1.3-3.8,4.4-6.3,7.4-8.6c3.4-2.7,5.6-6,7.4-9.8
		c12.3-27,23.1-54.6,32.9-82.5c0.5-1.4,2.2-3.2,0.6-4.4c-0.7-0.6-2.7,0.6-4.2,0.6c-7.3,0.1-9.7,4.9-11.8,11
		c-7.9,22.3-15.5,44.7-26.1,65.9c-8,16.1-17.5,31.1-32.8,41.4c-6.5,4.4-13.6,7.2-21.3,7.6c-3.7,0.2-6.6,1.5-9.5,3.7
		c-8.2,6.5-16.1,13.4-24.9,19.2c-10.6,7-22.1,10.6-34.8,10.6c-20.6,0.1-35-9.7-43-28.3c-11.4-26.6-9.1-53.4,1.2-79.8
		c1.2-3.1,1.3-5.4-0.4-8.3c-5.6-8.5-9-17.6-11.3-27.2C95,85.3,95,83.7,95,82z M110,158.8c0,15.6,2.5,29.1,7.7,41.5
		c9.7,23,28.6,30.4,51.2,20.1c11.5-5.3,21.2-13,30.7-21.2c2.9-2.5,2-3.6-0.6-5.5c-8.8-6.4-15.4-14.4-16.8-25.6
		c-2.3-19.3,3.3-36.3,15.9-50.9c3.9-4.6,8.7-8.2,14.6-10.2c12.1-4.1,22.5,1.1,26.5,13.2c2,6.1,2.7,12.3,2.1,18.7
		c-1.6,17.2-9.3,31.8-19.3,45.4c-0.7,1-2.5,2-1.5,3.2c0.9,1.2,2.5-0.1,3.7-0.5c10.3-4.2,18.4-11.3,24.6-20.4
		c14-20.2,22.7-42.9,30.9-65.8c2-5.5,3.2-11.2,4.8-16.8c1.1-3.7,1.1-6-3.9-4c-4,1.6-8.4,2-12.7,2.1c-13.5,0.3-19.2-7.4-14.7-20.4
		c3-8.6,7.7-16.2,14.1-22.7c11.1-11.3,24-20,38.4-26.5c2.1-1,4.1-1.8,4.9-4.4c5.8-17.7,11.9-35.3,17.8-53c0.8-2.5,3.1-5.9,1.5-7.4
		c-2-1.9-4.3,1.8-6.7,2.5c-1.1,0.3-2.1,1-3.1,1.5c-24.9,12.6-51.6,20.3-78,28.9c-30.3,9.9-60.8,19.6-88.4,36.2
		c-22,13.2-39,30.5-47,55.2c-3.5,11-3.5,22,2.1,32.5c0.7,1.4,1.3,3.5,3.2,3.4c1.7-0.1,1.9-2.1,2.6-3.4c4.5-8.4,8.7-16.9,13.4-25.1
		c10.5-18.5,22.5-35.9,40-48.6c11.7-8.5,24.5-14.1,39.1-14.6c13.5-0.4,21.2,7.1,21.6,20.6c0.3,9-1.9,17.5-5.9,25.5
		c-9.8,20-23.4,36.8-41.5,49.7c-19.1,13.7-39.8,20.8-63.3,12.2c-3.2-1.2-3.7,0.5-4.3,2.8C111.2,137.5,109.9,148.1,110,158.8z
		 M143.6,121.3c4,0.1,8.4-0.6,12.8-1.8c29.6-8.3,61-49.1,61.5-79.9c0.2-13.6-6.4-19-19.6-15.7c-14.1,3.5-25.8,11.3-36,21.4
		c-19.2,18.9-31.7,42.1-43.2,66.1c-1.3,2.6-0.5,3.8,2,4.9C128,119.2,135.2,121.4,143.6,121.3z M496.5-78.7
		c0-12.6-5.6-19.1-16.4-20.8c-5.4-0.8-10.6,0-15.7,1.9c-11.9,4.3-20.7,12.4-28.4,22.1c-15.2,19.3-24.4,41.9-34.4,64.1
		c-1.2,2.7-0.2,3.6,2.2,4.2c7.2,1.9,14.4,4.1,20.9,8c2.2,1.3,3.8,0.2,5.5-0.8c22.4-12.6,41-29.5,55.5-50.7
		C491.9-59.5,496.3-69.3,496.5-78.7z M230.3,141.6c0-6-0.8-11.9-3.4-17.5c-4.8-10.2-10.5-11.7-19.5-4.9
		c-13.7,10.4-21.4,33.3-16.7,49.9c2.3,8.3,7.2,14.5,14.8,18.5c2.1,1.1,3.8,1.8,5.6-0.5C221.9,173.8,230,159.4,230.3,141.6z
		 M371.8-2.8c-4.5,0.1-11.1,0.8-17.6,2.1c-3.1,0.6-4.9,2-5.8,5.2c-4.3,14.5-8.9,28.9-13.3,43.4c-0.4,1.2-1.5,2.6-0.4,3.7
		c1.1,1.1,2.5-0.1,3.7-0.4c10.7-3.2,19.8-10.1,30.8-12.6c1.6-0.4,2-2.1,2.7-3.4c3.8-7.9,7.7-15.8,11.4-23.8
		C389.7-2.8,389.6-2.9,371.8-2.8z M261.6,69.7c0.1,2.4-0.8,5.3,2.7,6.1c7.6,1.8,14.3-1.8,21.2-3.9c4-1.2,3.4-5.3,4.6-8.2
		c2.4-5.7,4.4-11.5,6.6-17.2c2.8-7.1,5.7-14.2,7-21.8c0.2-0.9,1-2.1-0.3-2.6c-0.5-0.2-1.5,0.3-2.2,0.7c-8.8,5.6-17.9,10.9-25.5,18.1
		C267.5,48.7,262.2,58.1,261.6,69.7z M306.2,65.2c6.1-0.3,12.1-4.5,14.3-10.3c4.8-13,9.4-26,14.1-39c0.9-2.5,3.5-5.7,2.1-7.2
		c-1.9-2-5.3,0.4-7.8,1.3c-3.7,1.4-8.7,1.2-10.3,6c-4.9,15.4-9.6,30.8-14.5,46.2C303.5,64.5,303.7,65.6,306.2,65.2z M399.2-2.3
		c-2.4-0.4-3.3,1-4,2.9c-1.9,5.1-3.9,10.2-5.7,15.4c-1.1,3.2-4.6,8-2.9,9.4c2.7,2.1,6.4-1.8,9.5-3.3c7.5-3.5,15-7.3,20.3-14
		c0.8-1,3.4-2.6,0.5-3.8C411.1,1.9,405.1-0.1,399.2-2.3z M368.4,102.7c0.1-5.9-0.6-11.6-1.9-17.3c-0.2-0.7-0.6-2-1-2
		c-1.4-0.2-1.4,1.2-1.6,2c-3.1,12.9-5.9,25.9-7.6,39.2c-0.1,1.1-0.7,2.5,0.6,3.1c1.2,0.6,2.2-0.4,3.1-1c3-2,4.9-4.9,6.1-8.3
		C368.1,113.4,368.5,108.1,368.4,102.7z"/>
	<path class="st0" d="M644.9-13.2c-0.4,2.6-10.3,19.7-16.1,29.2c-5.9,9.8-6.3,21.3-9.7,31.9c-1.5,4.7-2.1,9.8-5.8,13.6
		c-1.1,1.2-2.5,2.7-4.2,2c-1.6-0.7-0.8-2.7-0.8-4.1c0.1-5.5,1.3-10.9,2.8-16.2c3.4-11.7,6.8-23.3,10.6-34.9
		c2.8-8.6,7.2-16.4,13.9-22.8c2.5-2.4,5.2-3.8,8.7-1C644.9-14.7,645.1-14.7,644.9-13.2z"/>
	<path class="st0" d="M496.8,118.3c0,30-5.7,55.4-19.5,78.6c-1.7,2.8-1.3,4.7,0.6,7.1c5,6.6,11.1,12.4,15.4,19.6
		c3,4.9,5.1,10.1,5.2,16c0,1.6,0.3,3.9-1.2,4.6c-1.8,0.8-2.8-1.4-3.8-2.5c-4.4-4.9-6.8-11-10.1-16.6c-2.7-4.6-5.4-9.2-8.2-13.7
		c-2.1-3.5-4.1-4.1-7.7-1c-13.8,12-27.5,24.3-43.5,33.3c-42.5,23.8-84.9,23.8-126.6-1.8c-8.5-5.2-15.1-12.5-18.7-22.1
		c-5.4-14.2-1.4-28.8,10.5-38.1c14.3-11.2,31.6-14.3,48.8-17.3c5.1-0.9,10.2-1.8,15.3-1.7c5.8,0.1,9.1-2.6,12.3-6.9
		c8-10.6,15.6-21.6,25.5-30.6c5.6-5.1,11.9-9,19.1-11.5c4-1.4,5.4,0.1,5.9,3.8c1.2,8.3-0.9,15.9-4.3,23.3
		c-3.2,6.9-6.8,13.7-10.4,20.5c-1.8,3.4-1.2,4.6,2.7,4.9c11.7,1.1,22.4-8.9,22.6-21.3c0.1-13.5,8.3-25.5,19.5-28.4
		c6.8-1.8,9-0.5,10.6,6.4c2.8,11.6-3.8,29.7-13.5,36.8c-4.5,3.3-9.1,4-14.3,0.9c-5.5-3.3-6.3,2.9-8.6,5.3c-2.6,2.7,0,4,2.1,5.2
		c6.7,3.7,13.9,6.3,21.1,8.9c7.3,2.6,14,5.6,19.3,11.7c4.7,5.3,5.8,4.8,10.2-1c3.4-4.6,5.9-9.5,7.5-15.1c3-10.8,5.1-21.7,6.7-32.8
		c0.2-1.1,1-2.5-0.2-3.2s-2.1,0.6-3.1,1.2c-3.2,2.1-6.2,4.4-10,5.4c-7.1,1.9-11.2-0.4-12.2-7.5c-1.7-12.7,1.3-24.6,10.1-33.8
		C479,97.6,485,90,488.8,80.6c1.1-2.8,2.7-7.2,6.2-5.9c3.9,1.5,1.8,5.8,0.9,8.8c-1.9,6.5-6.5,11.2-11.6,15.3
		c-11.6,9.2-13.2,22-13.2,35.5c0,1.7-0.1,4,1.9,4.8c2.1,0.8,3.9-0.7,5.3-2.1c3.9-3.7,5.5-8.7,6.6-13.7c1.5-7,2.7-14.1,4.3-21
		c0.6-2.7,1.6-6.7,4.5-6.4c2.7,0.3,1.8,4.4,2.1,6.9C496.2,108.8,496.5,115.1,496.8,118.3z M359.7,253.5c11.4,0.1,22.5-1.7,33.3-5.2
		c26.9-8.8,48.4-25.9,68.2-45.6c2.9-2.9,0.4-3.9-1.4-5.3c-12.2-8.9-25.9-14.8-39.8-20.4c-4.6-1.9-7.4-1.5-10.4,2.7
		c-3.5,4.9-7.9,9.1-14.1,10.6c-8.8,2.1-12.1-1.1-10.4-9.9c0.4-1.8,0.7-3.6,1.3-5.3c1.4-3.6-0.1-4.9-3.5-5.2
		c-5.3-0.5-10.6-1-15.8-1.8c-3.4-0.5-5.3,0.7-6.6,3.7c-1.5,3.3-2.7,6.9-5.4,9.5c-1.1,1-2.4,2.3-3.9,1.2c-1.4-1-1.3-2.8-0.7-4.1
		c0.7-1.6,1.9-3.1,2.9-4.6c0.8-1.2,2.6-2.3,1.8-3.8c-0.9-1.9-3-0.7-4.5-0.7c-3.5,0.2-7,0.4-10.4,0.7c-19.6,2.1-37.2,8.8-50.8,23.7
		c-7,7.6-7.4,16.1-2.1,24.8c3.4,5.6,7.6,10.5,12.6,14.7C317.4,247.6,337.7,253.2,359.7,253.5z M387.9,164.7c2.1,0.6,3.2-0.7,3.6-3.4
		c1-7.8,4.7-14.5,8.3-21.2c2.2-4.1,4.1-8.4,6-12.6c0.7-1.6,1.9-3.8,0.2-5.1c-1.5-1.1-2.9,1-4.2,1.9c-13.1,9.3-21.6,22.9-31.7,35
		c-1.7,2-1,2.7,1.3,3C376.7,163,381.9,163.8,387.9,164.7z M449,130.9c-0.5-2.4,0.8-6-1.8-7.1c-2.8-1.1-5.2,1.8-6.9,3.9
		c-5.8,7.2-7,15.9-6.9,24.9c0,4.4,1.9,4.1,4.8,2C446.1,148.7,448.4,140.3,449,130.9z M393.9,179.7c0.9,1.4-0.9,4.2,2.6,4.3
		c3.2,0,9.1-5.4,8.6-8.6c-0.6-4-4.5-2.5-6.8-2.7C393,172.3,394.9,176.9,393.9,179.7z"/>
	<path class="st0" d="M607.5,41.9c-2.6,17.3-8,34.4-15.5,50.8c-0.1,0.3-0.3,0.6-0.5,0.9c-2.2,2.7-4.5,7-8,5.1
		c-3.2-1.7-0.3-5.7,0.5-8.6c0.3-1.2,2-2.6,0.5-3.5c-1.2-0.7-2.4,0.9-3.1,1.9c-1.4,2.1-2.6,4.2-3.9,6.4c-1.8,3-3.6,6-6.6,8.1
		c-5.3,3.6-9.3,2.4-11-3.7c-1.1-3.7-2.3-3.1-4-0.8c-2.3,3.1-4.2,6.4-6.5,9.5c-1.9,2.7-4.4,4.6-8,3.8c-3.5-0.8-5.3-3.5-6-6.7
		c-1.2-6-1.3-12,3.3-16.9c1.5-1.7,3.6-3,5.7-1.9c2.1,1.1,0.9,3.3,0.6,5c-0.6,3.3-1.4,6.5-1.9,9.8c-0.2,1.1-0.5,2.6,0.9,3
		c0.7,0.2,1.8-0.6,2.5-1.2c0.9-0.7,1.8-1.6,2.4-2.5c9-13.3,19.1-25.9,22.4-42.5c1.6-8.2,5.1-16.3,12.2-21.8c1-0.8,2.2-2.2,3.4-1.6
		c1.3,0.7,0.4,2.4,0.2,3.6c-1.3,8.2-5.2,15.4-8.7,22.8c-3.7,7.7-7.2,15.4-7.7,24.1c-0.1,1.4-0.9,3.2,0.8,4.1
		c1.6,0.8,2.9-0.6,3.8-1.7c8-9.5,17.6-17.9,19.3-31.4c0.8-6,3.3-11.9,7.2-16.9c1.2-1.5,2.6-4,4.5-3.4
		C608.3,36.6,607,39.4,607.5,41.9z"/>
	<path class="st0" d="M423.5,82.6c0.5-5.1,1.4-10,6.5-12.7c2.8-1.5,4.6-1,4.1,2.6c-0.5,3.4-1.5,6.8-2.1,10.3
		c-0.2,1.1-0.7,2.6,0.5,3.2c1.4,0.8,2.5-0.5,3.3-1.5c1.1-1.4,2.2-3,3-4.6c1.8-3.4,3.4-6.8,7.5-8.2c1.8-0.6,2.3-2.7,3.2-4.3
		c3.8-7.5,5.9-15.5,8.7-23.4c2.8-7.9,5.7-15.7,12-21.6c1-1,2.3-2.7,3.7-2c1.8,1,0.6,3,0.2,4.5c-2.1,8.3-6.2,15.8-10.1,23.3
		c-2.8,5.4-5.1,10.9-5.8,16.9c-0.3,2.2-1.5,5.4,0.6,6.4c2.3,1.1,3.7-2.1,5.4-3.5c11.2-9.7,15.4-23.2,19.9-36.6
		c1.3-3.8,2.2-7.7,5.8-10.2c1-0.7,2.1-1.4,3.2-0.8c1.4,0.7,0.8,2,0.6,3.1c-3.6,19.6-9.3,38.5-19.7,55.7c-0.8,1.4-1.4,4.2-3.7,3.3
		c-2.3-0.9-2.1-3.5-1.6-5.7c0.2-1,0.6-1.9,0.8-2.9c0.4-1.6,2.4-3.9,1.2-4.4c-2.1-0.9-2.9,2-4,3.5c-2.2,3.1-3.9,6.6-6.3,9.6
		c-5.1,6.2-9.5,5.8-13.2-1.2c-1.1-2.1-2-1.1-3-0.3c-2,1.6-3.3,3.7-4.5,6c-2.2,4.2-4.7,8-10.3,6.4C425.8,92.6,423.5,88.2,423.5,82.6z
		"/>
	<path class="st0" d="M533.8,87.6c-0.6,12.5-5,23.6-13.1,33.1c-3.5,4.1-7.9,8-13.7,5.9c-5.9-2.1-7.5-7.9-7.9-13.4
		C498,100.5,504.2,91.3,514,84c3.6-2.7,7.8-4.4,12.2-5.4c6.2-1.4,7.2-0.6,7.6,5.8C533.9,85.6,533.8,86.6,533.8,87.6z M526.2,96.7
		c0-3.3-0.8-6.2-2.5-9c-0.8-1.4-1.8-2-3.1-0.5c-6.4,7.5-11.5,15.5-10.6,25.9c0.2,2,0.1,5,2.4,5.6c2,0.6,4-1.4,5.5-2.9
		C523.3,110.6,525.7,104.1,526.2,96.7z"/>
	<path class="st0" d="M345.6,99.8c-1.3,10.4-5.4,21.2-14.5,29.7c-4.1,3.8-9,5.5-14.1,2.3c-5-3-4.7-8-3.7-12.9
		c1.9-10,7-18.3,13.7-25.6c1.5-1.7,3.6-2.9,5.7-3.9C340.9,85.4,345.9,88.8,345.6,99.8z M323,117.8c0.1,1.1,0,2,0.1,2.8
		c0.3,2,0.5,4.4,2.5,5.1c1.9,0.6,3.1-1.5,4.3-2.8c4.3-4.4,7-9.6,8.2-15.6c0.7-3.5,0.3-6.9-1.5-10.1c-0.9-1.5-1.9-2.5-3.3-0.7
		C328.3,102.9,323.9,109.7,323,117.8z"/>
	<path class="st0" d="M614.6,74.1c-0.9,2.7-2.2,5-5.3,4.9c-2.8-0.1-4-2.3-3.9-4.8c0.1-3.2,2.8-3.2,5.1-3.3
		C612.5,70.9,614.4,71.5,614.6,74.1z"/>
</g>
</svg>
